<svg width="33" height="35" viewBox="0 0 33 35" fill="none" xmlns="http://www.w3.org/2000/svg">
<path fill-rule="evenodd" clip-rule="evenodd" d="M10.255 18.8443H8.37265V20.7266H10.255V18.8443ZM8.37265 16.9619C7.33302 16.9619 6.4903 17.8046 6.4903 18.8443V20.7266C6.4903 21.7662 7.33302 22.609 8.37265 22.609H10.255C11.2946 22.609 12.1374 21.7662 12.1374 20.7266V18.8443C12.1374 17.8046 11.2946 16.9619 10.255 16.9619H8.37265Z" fill="#6F81A1"/>
<path fill-rule="evenodd" clip-rule="evenodd" d="M17.7847 18.8443H15.9023V20.7266H17.7847V18.8443ZM15.9023 16.9619C14.8627 16.9619 14.02 17.8046 14.02 18.8443V20.7266C14.02 21.7662 14.8627 22.609 15.9023 22.609H17.7847C18.8243 22.609 19.667 21.7662 19.667 20.7266V18.8443C19.667 17.8046 18.8243 16.9619 17.7847 16.9619H15.9023Z" fill="#6F81A1"/>
<path fill-rule="evenodd" clip-rule="evenodd" d="M25.3138 18.8443H23.4315V20.7266H25.3138V18.8443ZM23.4315 16.9619C22.3919 16.9619 21.5491 17.8046 21.5491 18.8443V20.7266C21.5491 21.7662 22.3919 22.609 23.4315 22.609H25.3138C26.3535 22.609 27.1962 21.7662 27.1962 20.7266V18.8443C27.1962 17.8046 26.3535 16.9619 25.3138 16.9619H23.4315Z" fill="#6F81A1"/>
<path fill-rule="evenodd" clip-rule="evenodd" d="M10.255 26.3737H8.37265V28.256H10.255V26.3737ZM8.37265 24.4913C7.33302 24.4913 6.4903 25.3341 6.4903 26.3737V28.256C6.4903 29.2957 7.33302 30.1384 8.37265 30.1384H10.255C11.2946 30.1384 12.1374 29.2957 12.1374 28.256V26.3737C12.1374 25.3341 11.2946 24.4913 10.255 24.4913H8.37265Z" fill="#6F81A1"/>
<path fill-rule="evenodd" clip-rule="evenodd" d="M17.7847 26.3737H15.9023V28.256H17.7847V26.3737ZM15.9023 24.4913C14.8627 24.4913 14.02 25.3341 14.02 26.3737V28.256C14.02 29.2957 14.8627 30.1384 15.9023 30.1384H17.7847C18.8243 30.1384 19.667 29.2957 19.667 28.256V26.3737C19.667 25.3341 18.8243 24.4913 17.7847 24.4913H15.9023Z" fill="#6F81A1"/>
<path fill-rule="evenodd" clip-rule="evenodd" d="M25.3138 26.3737H23.4315V28.256H25.3138V26.3737ZM23.4315 24.4913C22.3919 24.4913 21.5491 25.3341 21.5491 26.3737V28.256C21.5491 29.2957 22.3919 30.1384 23.4315 30.1384H25.3138C26.3535 30.1384 27.1962 29.2957 27.1962 28.256V26.3737C27.1962 25.3341 26.3535 24.4913 25.3138 24.4913H23.4315Z" fill="#6F81A1"/>
<path fill-rule="evenodd" clip-rule="evenodd" d="M3.66679 5.66775C3.147 5.66775 2.72561 6.08912 2.72561 6.60893V32.0207C2.72561 32.5405 3.147 32.9619 3.66679 32.9619H30.0197C30.5382 32.9619 30.9609 32.5398 30.9609 32.0186V6.611C30.9609 6.08987 30.5382 5.66775 30.0197 5.66775H27.1962V3.7854H30.0197C31.5805 3.7854 32.8433 5.05288 32.8433 6.611V32.0186C32.8433 33.5767 31.5805 34.8442 30.0197 34.8442H3.66679C2.1074 34.8442 0.843262 33.5801 0.843262 32.0207V6.60893C0.843262 5.04949 2.1074 3.7854 3.66679 3.7854H8.37267V5.66775H3.66679ZM23.4315 5.66775H12.1374V3.7854H23.4315V5.66775Z" fill="#6F81A1"/>
<path fill-rule="evenodd" clip-rule="evenodd" d="M30.9609 14.1383H2.72559V12.256H30.9609V14.1383Z" fill="#6F81A1"/>
<path d="M8.37268 1.90309C8.37268 1.3833 8.79405 0.961914 9.31386 0.961914C9.83367 0.961914 10.255 1.3833 10.255 1.90309V8.49133C10.255 9.01114 9.83367 9.4325 9.31386 9.4325C8.79405 9.4325 8.37268 9.01114 8.37268 8.49133V1.90309Z" fill="#6F81A1"/>
<path d="M23.4315 1.90309C23.4315 1.3833 23.8529 0.961914 24.3727 0.961914C24.8925 0.961914 25.3139 1.3833 25.3139 1.90309V8.49133C25.3139 9.01114 24.8925 9.4325 24.3727 9.4325C23.8529 9.4325 23.4315 9.01114 23.4315 8.49133V1.90309Z" fill="#6F81A1"/>
</svg>
